<?xml version="1.0" encoding="utf-8"?>
<!-- Generator: Adobe Illustrator 19.0.0, SVG Export Plug-In . SVG Version: 6.00 Build 0)  -->
<svg version="1.1" id="Layer_1" xmlns="http://www.w3.org/2000/svg" xmlns:xlink="http://www.w3.org/1999/xlink" x="0px" y="0px"
	 viewBox="-49 -30 540 540" style="enable-background:new -49 -30 540 540;" xml:space="preserve">
<style type="text/css">
	.st0{fill:#FFFFFF;}
</style>
<g>
	<g>
		<path class="st0" d="M22.9,303.8c5.7,12.5,10,21.6,12.9,27.6c2.3,4.5,4.7,9.3,7.7,14.6c1,1.9,1.9,3.4,2.5,4.6
			c0.2,0.5,0.6,1.2,1.1,2.4c-0.9,0.7-2.8,1.8-5.7,3.6l-5.4,3.3c-0.9,0.5-1.6,0.3-1.9-0.5c-0.3-0.6,0-1.5,0.9-2.6
			c1.5-1.8,2.6-3.8,3.3-5.9c0.7-2.1,0.8-4.2,0.3-6.3c-0.5-2-1.8-5.3-3.8-9.6c-3.8,1.4-8.4,3.5-13.8,6.1c-5.5,2.7-10.9,5.5-16,8.2
			s-8.1,4.5-9,5.4c-0.9,0.8-1.5,1.7-1.6,2.7c-0.1,1,0.3,2.9,1.5,5.7c0.3,1,0.2,1.6-0.3,1.9c-0.7,0.3-1.2,0.1-1.6-0.7l-0.5-1
			l-3.5-7.4c-2.8-5.7-4.5-9.2-5.2-10.5l-2.4-4.4c-0.2-0.3-0.6-1.1-1-2.3c-0.1-0.6,0-1,0.5-1.2c0.7-0.3,1.2,0,1.7,0.8
			c1,2.1,2.3,3.5,3.6,4.2s3.2,0.6,5.2-0.1s6.2-2.6,12.6-5.7c10-5,18.1-9.2,24.1-13.1c-1.9-3.9-3.5-6.6-4.6-8.2
			c-1.1-1.6-2.9-2.8-5.1-3.7c-2.3-0.9-4.7-1.4-7.5-1.2c-1.1,0-1.8-0.2-2-0.7c-0.5-0.8-0.2-1.4,0.5-1.7c0.2-0.1,1.8-0.7,4.8-1.8
			C18.2,305.3,20.7,304.4,22.9,303.8z"/>
		<path class="st0" d="M66.1,374.2c3.5,3.9,5.9,8.2,6.9,12.6c1,4.4,0.9,8.9-0.6,13.4s-3.9,8.3-7.5,11.5c-5.5,5-12.3,7.2-20.2,6.9
			c-7.9-0.3-14.6-3.5-20-9.7c-5-5.5-7.3-11.8-7.3-18.9s3-13.3,9.1-18.6c5.6-5.1,12.4-7.3,20-6.9C54.3,364.8,60.8,368.1,66.1,374.2z
			 M55.2,402.3c6-5.3,9.6-10.4,10.8-15.1c1.2-4.7,0.5-8.7-2.4-11.7c-2.7-3.2-6.5-4.3-11.4-3.6c-4.8,0.7-10.2,3.6-16.2,8.9
			c-5.7,5.1-9.3,10-10.7,14.8c-1.5,4.7-0.7,8.8,2.3,12c2.6,2.9,6.2,4.2,11,3.7C43.4,411,48.9,408,55.2,402.3z"/>
		<path class="st0" d="M126.8,423.7c0.5-0.1,1-0.5,1.7-0.9c0.8-0.6,1.4-0.7,1.8-0.5c0.7,0.3,0.7,1,0.3,2.1l-4.1,10.1l-0.5,1.2
			c-0.3,0.7-0.8,0.8-1.5,0.5c-0.5-0.2-0.8-0.6-0.8-0.9c-0.1-0.3-0.1-1.2,0-2.8c0.1-2.6-0.5-5.4-1.8-8.3c-1.4-2.9-3.2-5.1-5.5-6.3
			c-2.3-1.2-4.5-1.7-6.6-1.2c-2.3,0.5-3.8,1.7-5,3.6c-0.9,1.6-1,3.4-0.2,5.4c0.8,2,2.7,4.7,6,8c5.2,5.2,8.1,9.7,8.9,13.5
			c0.7,3.8,0.2,7.2-1.6,10.5c-1.8,3.3-4.2,5.5-7,6.8c-2.8,1.4-5.6,1.9-8.6,2c-2.9,0-6.1-0.9-9.6-2.9c-1.9-1.1-3.8-2.5-5.6-4.3
			c-1.8-1.7-3.5-3.8-5.1-6.2c-0.8,0.2-1.6,0.8-2.4,1.5c-0.9,0.8-1.6,0.9-2.1,0.7c-0.6-0.3-0.6-1.1,0-2.5l6-13.1
			c0.2-0.6,0.5-0.9,0.6-1.1c0.3-0.7,0.9-0.8,1.6-0.5c0.5,0.3,0.7,1.1,0.5,2.6c-0.6,4.3-0.2,8.2,0.9,11.8c1.1,3.6,3.3,6.3,6.4,8.1
			c2.7,1.6,5.4,1.9,7.9,1.2c2.6-0.7,4.4-2,5.6-4.1c1.2-2,1.4-4.2,0.6-6.5c-0.8-2.3-2.8-5.2-6.1-8.7c-3.2-3.5-5.4-6.3-6.6-8.4
			c-1.2-2.3-1.9-4.6-1.9-7.3c0-2.7,0.6-5.1,1.7-7.1c2-3.6,5.2-5.9,9.3-6.9c4.2-1,8.8-0.1,13.5,2.6
			C120.4,417.1,123.4,419.8,126.8,423.7z"/>
		<path class="st0" d="M177.5,440.2c-0.3,4.2-0.8,8.3-1.1,12.5c-0.2,0.8-0.7,1-1.5,0.8c-0.5-0.1-0.8-0.6-1-1.5
			c-1.5-4.5-3.2-7.8-5-9.6c-1.8-1.8-4.7-3.4-8.8-4.6c-2.3-0.7-4.5-1.1-6.8-1.5c-1.8,4.3-3.5,9.1-5.1,14.5c-0.2,0.9-0.7,2.5-1.2,4.6
			l2.8,0.9c1.8,0.6,3.4,0.8,4.8,0.7c1.5-0.1,2.8-0.8,4.3-2.1c1.5-1.4,2.3-2.3,2.5-2.6c0.5-0.8,1-1,1.6-0.9c0.7,0.2,1,0.7,0.8,1.2
			c0,0.2-0.1,0.3-0.2,0.6c-0.8,1.5-2.4,6.1-4.6,14c-0.3,1.1-0.6,2.1-0.6,3c0,0.2,0,0.5-0.1,0.7c-0.2,0.7-0.7,0.9-1.6,0.7
			c-0.6-0.1-0.8-1-0.7-2.4c0.2-2.5-0.5-4.6-1.8-6.4c-1.5-1.8-4.1-3.3-8-4.5c-1.4,4.2-2.3,7-2.7,8.3c-1.7,5.7-2.7,9.2-2.8,10.4
			c-0.1,1.1,0.2,2.3,1.1,3.3c0.9,1,2.7,1.9,5.4,2.7c9.7,2.9,16.9,1.7,21.7-3.5c0.7-0.7,1.2-1,1.8-0.9c0.7,0.2,1,0.7,0.8,1.2
			c-0.1,0.5-0.3,0.9-0.7,1.5l-5.7,10.1l-13.7-4.2c-3.8-1.2-7.4-2.4-10.7-3.5c-3.3-1.1-5.9-2-7.8-2.6c-2.1-0.7-5.4-1.5-9.7-2.5
			c-0.6-0.1-0.9-0.2-1.2-0.2c-1.2-0.3-1.7-0.9-1.5-1.7c0.2-0.7,0.8-0.9,1.8-0.7c2.5,0.8,4.3,0.6,5.5-0.6c1.2-1.1,2.5-3.6,3.7-7.8
			l6.1-19.5c2-6.6,3.2-10.8,3.4-12.4c0.3-1.6,0.1-2.7-0.3-3.5c-0.6-0.8-1.8-1.6-3.6-2.5c-0.8-0.3-1.1-0.8-0.9-1.5
			c0.2-0.8,0.8-1,1.7-0.7l9,3L177.5,440.2z"/>
		<path class="st0" d="M226.4,444c0.7,4.2,1.2,8.3,1.8,12.5c0,0.8-0.5,1.1-1.2,1.1c-0.5,0-0.9-0.5-1.4-1.1c-2.5-4.1-4.8-6.8-7.1-8.2
			c-2.1-1.4-5.4-2.1-9.7-2.4c-2.4-0.1-4.7,0-6.9,0.2c-0.7,4.6-1.2,9.7-1.5,15.3c0,0.9-0.1,2.6-0.1,4.7l3,0.2
			c1.9,0.1,3.5-0.1,4.8-0.6c1.4-0.5,2.6-1.5,3.6-3.2c1-1.6,1.6-2.7,1.8-3.2c0.2-0.8,0.7-1.2,1.2-1.2c0.8,0,1.1,0.3,1,1
			c0,0.2,0,0.3-0.1,0.7c-0.5,1.6-0.8,6.5-1.2,14.6c-0.1,1.1,0,2.1,0.1,3.2c0,0.2,0.1,0.5,0,0.7c0,0.8-0.5,1.1-1.4,1
			c-0.6,0-1-0.8-1.2-2.1c-0.5-2.5-1.5-4.4-3.3-5.7s-4.7-2.1-8.8-2.5c-0.3,4.4-0.6,7.3-0.7,8.8c-0.3,6-0.5,9.6-0.2,10.7
			c0.1,1.1,0.8,2.1,1.9,2.8c1.1,0.8,3,1.2,5.9,1.4c10,0.6,16.8-2.4,20.3-8.6c0.5-0.9,1-1.4,1.6-1.2c0.8,0,1.1,0.3,1.1,1
			c0,0.5-0.1,1-0.3,1.6l-3.2,11.3l-14.3-0.8c-4.1-0.2-7.8-0.6-11.3-0.9s-6.2-0.6-8.2-0.7c-2.3-0.1-5.5-0.1-10-0.1c-0.6,0-1,0-1.2,0
			c-1.2-0.1-1.8-0.5-1.8-1.4c0-0.8,0.6-1.1,1.6-1c2.6,0.1,4.3-0.5,5.3-1.8c0.9-1.4,1.6-4.2,1.8-8.4l1.2-20.4
			c0.3-7,0.5-11.3,0.5-12.8c-0.1-1.6-0.5-2.7-1.2-3.3c-0.7-0.6-2-1.1-4.1-1.5c-0.8-0.1-1.2-0.6-1.2-1.1c0-0.8,0.6-1.1,1.6-1.1
			l9.5,0.8L226.4,444z"/>
		<path class="st0" d="M268.9,437.5c1.2,1.4,3.3,3.4,6.2,6.1c2.9,2.7,5.9,5.5,8.8,8.4c2.9,2.8,6.1,5.9,9.6,8.9
			c2.8,2.4,4.4,3.8,4.7,4.3c1.4-16.1,2.3-29.1,2.5-38.7c6-2,11.5-4.2,16.4-6.2c0.5-0.2,0.8-0.3,1-0.5c1-0.3,1.7-0.1,1.9,0.7
			c0.2,0.7,0,1.2-0.8,1.5c-2.8,1-4.4,2.6-4.6,4.8c-0.2,2.3,1,7.1,3.6,14.5l6.3,18.4c1.4,3.7,2.7,6.2,4.2,7.3s3.4,1.4,5.6,0.7
			c1.1-0.3,1.7-0.2,2,0.6c0.1,0.3,0,0.8-0.3,1.1l-10.5,3.6c-3.3,1.1-7.5,2.8-13.1,5c-0.6-0.1-0.9-0.5-1.1-0.8
			c-0.2-0.6,0.3-1.2,1.6-1.8c1.2-0.7,2-1.4,2.5-1.9c0.5-0.7,0.6-1.6,0.5-2.8c-0.1-1.2-0.6-3-1.4-5.2l-5.6-16.8
			c-2.9-8.6-4.6-13.5-5.1-14.8c-1.4,18.1-2,29.6-2.1,34.6l-0.2,11.5c0,1.2-0.3,1.9-0.7,2c-0.5,0.1-1.2-0.3-2.3-1.5
			c-3.2-3.2-14.1-13.6-32.7-31.3c2,6.2,4.8,14.6,8.6,25.1c1.9,5.5,3.5,8.9,4.6,10.1c1.1,1.2,3.2,1.5,6.1,0.8c1-0.2,1.6,0,1.8,0.6
			c0.2,0.7,0,1.1-0.8,1.4c-0.2,0.1-0.6,0.2-0.9,0.2c-3,0.8-5.3,1.5-6.5,1.9c-3.5,1.2-6.2,2.3-7.9,3.2c-0.3,0.2-0.6,0.3-0.8,0.3
			c-0.9,0.3-1.5,0.1-1.7-0.7c-0.1-0.3-0.1-0.7,0.1-0.8c0.1-0.2,0.7-0.6,1.6-1.1c2.3-1.2,3.5-2.7,3.8-4.2c0.3-1.6-0.1-3.7-1-6.6
			l-7.2-21.4c-1.7-4.8-2.9-8-3.7-9.6c-0.8-1.5-1.8-2.5-3-3s-3-0.6-5.4-0.2c-0.9,0.1-1.5-0.1-1.7-0.8c-0.2-0.7,0.1-1.2,1-1.5
			c0.2-0.1,0.5-0.1,0.8-0.2C255.6,442,260.9,440.3,268.9,437.5z"/>
		<path class="st0" d="M341.1,400.9c4.3-3.2,8.7-5.2,13.1-5.9c4.5-0.7,8.9-0.1,13.3,1.6c4.4,1.8,8,4.6,10.8,8.4
			c4.5,5.9,6.2,12.8,5.2,20.7c-1,7.9-4.7,14.3-11.3,19.1c-6,4.5-12.4,6.4-19.5,5.7c-7.1-0.6-12.9-4.2-17.8-10.6
			c-4.6-6.1-6.3-12.9-5.3-20.5C331,412,334.7,405.7,341.1,400.9z M368.3,414c-4.8-6.4-9.6-10.4-14.1-11.9c-4.6-1.6-8.6-1.1-11.9,1.4
			c-3.3,2.5-4.8,6.2-4.6,11c0.2,4.8,2.8,10.5,7.5,16.9c4.6,6.1,9.2,10,13.8,11.8c4.6,1.8,8.7,1.4,12.2-1.2c3.2-2.4,4.6-5.9,4.6-10.7
			C376,426.5,373.4,420.8,368.3,414z"/>
		<path class="st0" d="M401.9,377c2.6-2.5,5.2-4.2,8-5c2.7-0.8,6.4-0.1,11,1.9c4.3,1.9,7.4,2.9,9.3,2.8c1.9-0.1,3.6-1,5.1-2.7
			c0.8-0.9,1.5-1.1,2-0.8c0.6,0.5,0.3,1.5-0.9,3l-9.7,11.8c-2.3,0.2-5.1-0.6-8.7-2.6c-4.6-2.6-8-4.3-10.1-5c-2.1-0.7-4.2-0.7-5.9,0
			c-1.7,0.7-3.2,1.8-4.5,3.5c-0.3,0.5-0.9,1.1-1.5,2c7.3,5.7,11.9,9.1,13.6,10.5c1.7,1.4,3.3,1.9,4.5,1.8c1.2,0,2.6-0.9,4.1-2.6
			c0.8-0.9,1.5-1.1,2-0.7s0.6,1-0.1,1.9l-7.7,9.5c-1,1.2-2.3,3-3.7,5.1c-1.4,1.9-2.3,3.2-2.6,3.6c-0.7,0.9-1.4,1-1.9,0.6
			s-0.6-1,0-1.8c0.9-1.1,1.5-2.5,1.7-3.9c0.2-1.5-1.9-3.8-6.3-7.2l-5.9-4.5l-11.3-8.8c-5.7-4.5-9.6-7-11.3-7.4
			c-1.7-0.5-3.4,0.3-5.2,2.6c-0.7,0.9-1.4,1-1.9,0.6c-0.6-0.5-0.5-1.2,0.5-2.5c4.5-5.9,8.3-10.9,11.3-15.2c1.2-1.9,2.5-3.6,3.6-5.1
			c3.7-4.7,7.5-7.8,11.5-8.9c3.9-1.2,7.4-0.7,10.5,1.7c2,1.6,3.4,3.6,4.1,6.2s0.6,5.1-0.1,7.5C404.9,371.7,403.7,374.3,401.9,377z
			 M394,384.5c0.5-0.6,0.8-0.9,1-1.2c1.4-1.8,2.5-3.9,3.3-6.3c0.8-2.4,0.7-4.5-0.2-6.4s-2.3-3.5-3.9-4.8c-2.6-2-5.3-2.8-7.9-2.4
			c-2.7,0.5-5,1.8-6.9,4.3c-0.8,1-1.5,2.4-2.1,3.9L394,384.5z"/>
		<path class="st0" d="M413.5,303c4.2,0.9,8.2,1.8,12.3,2.7c0.7,0.3,0.9,0.8,0.6,1.5c-0.1,0.3-0.7,0.7-1.6,0.9
			c-4.7,0.9-8.1,2.1-10.1,3.7c-2,1.6-3.9,4.3-5.6,8.2c-0.9,2.1-1.7,4.4-2.3,6.5c4.1,2.3,8.7,4.6,13.7,6.8c0.9,0.3,2.4,1,4.4,1.8
			l1.2-2.7c0.8-1.7,1.1-3.3,1.2-4.7c0.1-1.5-0.5-2.9-1.6-4.5c-1.1-1.6-1.9-2.5-2.3-2.8c-0.7-0.6-0.9-1.1-0.7-1.6
			c0.3-0.7,0.8-0.9,1.4-0.7c0.2,0.1,0.3,0.2,0.6,0.3c1.4,0.9,5.7,3,13.3,6.3c1,0.5,2,0.8,2.9,0.9c0.2,0,0.5,0.1,0.7,0.2
			c0.7,0.3,0.9,0.8,0.6,1.6c-0.2,0.6-1,0.7-2.5,0.3c-2.5-0.5-4.6-0.1-6.5,1c-1.9,1.2-3.7,3.6-5.4,7.3c4.1,1.9,6.6,3.2,7.9,3.7
			c5.5,2.4,8.8,3.7,9.9,4.1c1.1,0.3,2.3,0,3.4-0.8s2.3-2.5,3.4-5c4.1-9.2,3.7-16.6-0.8-22.1c-0.7-0.8-0.9-1.4-0.7-1.9
			c0.3-0.7,0.8-0.9,1.4-0.7c0.3,0.2,0.9,0.5,1.4,0.9l9.3,6.9l-5.7,13.1c-1.7,3.7-3.3,7.1-4.8,10.2c-1.6,3.2-2.7,5.6-3.5,7.4
			c-0.9,2-2.1,5.2-3.6,9.3c-0.2,0.6-0.3,0.9-0.5,1.1c-0.5,1.1-1.1,1.6-1.9,1.2c-0.7-0.3-0.8-0.9-0.5-1.8c1-2.4,1.1-4.2,0.2-5.5
			c-0.9-1.4-3.4-2.9-7.2-4.6l-18.6-8.4c-6.4-2.8-10.4-4.4-11.8-5c-1.6-0.5-2.7-0.5-3.5,0c-0.8,0.5-1.8,1.6-2.8,3.3
			c-0.5,0.8-0.9,1-1.6,0.7c-0.7-0.3-0.9-0.9-0.5-1.8l4.1-8.7L413.5,303z"/>
	</g>
	<g>
		<path class="st0" d="M-22.5,155.3c-0.2-0.5-0.7-0.9-1.2-1.5c-0.7-0.6-0.9-1.1-0.8-1.7c0.2-0.7,0.9-0.9,2-0.8l10.8,1.8l1.4,0.2
			c0.7,0.2,0.9,0.7,0.7,1.4c-0.1,0.5-0.3,0.8-0.7,1c-0.3,0.1-1.2,0.3-2.7,0.6c-2.6,0.5-5.2,1.6-7.7,3.6c-2.6,1.9-4.2,4.2-5,6.8
			c-0.8,2.5-0.7,4.7,0.2,6.8c0.9,2,2.5,3.4,4.6,4.1c1.7,0.6,3.5,0.2,5.3-0.9c1.8-1.1,3.9-3.6,6.5-7.7c3.9-6.2,7.7-10,11.3-11.6
			c3.5-1.6,7.1-1.8,10.5-0.8c3.5,1,6.2,2.8,8.1,5.3c1.9,2.5,3.2,5.1,3.8,8c0.7,2.9,0.5,6.2-0.7,9.9c-0.7,2.1-1.6,4.3-2.9,6.4
			c-1.4,2.1-2.9,4.2-5,6.3c0.5,0.7,1,1.4,1.9,2c0.9,0.7,1.2,1.4,1.1,2c-0.2,0.7-1,0.8-2.4,0.6l-14.1-3c-0.7-0.1-1-0.2-1.1-0.2
			c-0.8-0.2-1-0.7-0.8-1.5c0.1-0.6,1-0.9,2.4-1c4.3-0.5,8-1.6,11.4-3.5c3.3-1.9,5.5-4.6,6.5-8.1c0.9-2.9,0.7-5.6-0.5-8
			c-1.2-2.4-2.9-3.8-5.2-4.5s-4.4-0.3-6.4,0.8c-2,1.2-4.4,3.8-7.2,7.8c-2.7,3.8-5,6.6-6.9,8.3c-1.9,1.7-4.2,2.8-6.8,3.5
			c-2.6,0.6-5.1,0.6-7.3-0.1c-3.9-1.2-6.9-3.7-8.8-7.7c-1.9-3.9-2-8.4-0.5-13.7C-27.6,163.1-25.5,159.5-22.5,155.3z"/>
		<path class="st0" d="M7.6,98c-0.3-0.8-0.7-1.7-1.1-2.7c-0.6-1.1-0.7-1.9-0.5-2.4c0.2-0.5,0.6-0.7,0.9-0.7s1.1,0.3,2.4,0.9
			l11.1,5.4l1.5,0.7c0.9,0.6,1.1,1.1,0.8,1.9c-0.2,0.5-0.9,0.7-1.8,0.6c-2.9-0.5-6.6-0.3-11,0.5c-4.4,0.8-7.7,3-9.7,6.8
			c-1.6,2.7-2.1,5.5-1.6,8.3c0.6,2.8,1.9,5.5,4.1,8.1s5.2,5.1,9.1,7.2c6.6,3.8,12.7,5.3,18.2,4.6c5.5-0.7,9.6-3.2,12-7.5
			c2.7-4.7,2.3-10.6-1.1-17.8c-0.5-0.9-0.5-1.6-0.2-1.9c0.5-0.7,1-0.9,1.7-0.5c1.5,0.9,2.9,4.1,4.2,9.6c1.2,5.5,0.3,10.9-2.8,16.4
			c-4.1,7.2-9.6,11.6-16.4,13.3s-13.5,0.6-19.9-3c-6.4-3.7-10.9-9-13.3-15.9c-2.4-6.9-1.7-13.6,1.9-20C-1.5,105.1,2.3,101.2,7.6,98z
			"/>
		<path class="st0" d="M54.9,75.8c2.8-2.3,5.6-3.5,8.4-4.1c2.8-0.5,6.3,0.6,10.7,3.2c4.1,2.4,7.1,3.7,9,3.8c1.9,0.1,3.7-0.6,5.4-2
			c0.9-0.8,1.7-1,2.1-0.5c0.6,0.6,0.1,1.5-1.2,2.9L78.4,89.9c-2.3,0-5.1-1.1-8.3-3.6c-4.3-3.2-7.4-5.1-9.5-6.1
			c-2.1-0.9-4.1-1.1-5.7-0.7C53.1,80,51.5,81,50,82.4c-0.5,0.5-1,1-1.7,1.9c6.6,6.5,10.8,10.5,12.4,11.9c1.6,1.5,3,2.3,4.2,2.3
			s2.7-0.7,4.3-2.1c0.9-0.8,1.6-0.9,2.1-0.5c0.6,0.5,0.5,1.1-0.3,1.8l-8.7,8.4c-1.1,1.1-2.6,2.7-4.3,4.6c-1.6,1.8-2.6,2.9-2.9,3.4
			c-0.8,0.8-1.4,0.9-1.9,0.3c-0.6-0.6-0.5-1.1,0.2-1.8c1-1,1.7-2.3,2-3.7S54,105,50,101.1l-5.3-5.1l-10.1-9.9
			c-5.3-5.1-8.7-8-10.4-8.7c-1.6-0.7-3.4,0-5.4,2c-0.8,0.8-1.5,0.9-2,0.3c-0.6-0.6-0.3-1.4,0.7-2.4c5.2-5.3,9.5-10,12.8-13.8
			c1.5-1.8,2.9-3.3,4.2-4.6c4.2-4.3,8.3-6.9,12.4-7.7c4.1-0.8,7.5,0.2,10.2,2.8c1.8,1.8,2.9,4.1,3.3,6.6s0,5.1-0.9,7.5
			C58.5,70.8,57,73.3,54.9,75.8z M46.2,82.3c0.5-0.5,0.9-0.8,1.1-1.1c1.6-1.7,2.9-3.6,3.9-5.9c1-2.3,1.1-4.4,0.5-6.4
			c-0.7-2-1.8-3.7-3.3-5.3c-2.4-2.3-4.8-3.4-7.5-3.3c-2.7,0.1-5.1,1.2-7.2,3.5c-0.9,0.9-1.8,2.1-2.6,3.6L46.2,82.3z"/>
		<path class="st0" d="M86.7,17.8c4.6-2.7,9.1-4.3,13.6-4.5c4.5-0.2,8.9,0.8,13.1,3s7.4,5.4,9.9,9.5c3.8,6.3,4.8,13.4,3,21.1
			c-1.8,7.8-6.2,13.7-13.2,17.9c-6.3,3.8-13.1,5.1-19.9,3.7c-7-1.4-12.5-5.5-16.7-12.4c-3.9-6.5-5-13.5-3-20.9
			C75.4,27.7,79.7,21.9,86.7,17.8z M112.4,33.7c-4.2-6.9-8.3-11.4-12.8-13.4c-4.4-2-8.4-2-11.9,0.1c-3.6,2.1-5.4,5.6-5.7,10.5
			c-0.2,4.8,1.7,10.7,5.7,17.6c3.9,6.5,8.1,11,12.5,13.3c4.4,2.3,8.4,2.3,12.3,0c3.4-2,5.3-5.4,5.7-10.1
			C118.7,47,116.8,41,112.4,33.7z"/>
		<path class="st0" d="M182.8,36.9c-6.4,1.5-16.3,4.2-29.7,8c-4.6,1.4-8.4,2.6-11.3,3.7c-0.7,0.2-1.2,0.5-1.6,0.6
			c-1,0.2-1.6,0-1.8-0.7c-0.1-0.3,0-0.7,0.1-0.9c0.2-0.2,0.8-0.6,1.7-1c1.5-0.7,2.6-1.5,3.3-2.5c0.7-0.9,0.9-2.1,0.9-3.6
			c0-1.5-0.9-5.1-2.5-10.8s-3.5-12.5-5.7-20.3c-0.9-3.2-1.8-5.3-2.6-6.6c-0.9-1.2-1.8-2.1-2.8-2.5c-1-0.5-2.4-0.5-3.9-0.1
			c-1.1,0.2-1.8,0-2-0.8c-0.2-0.8,0.3-1.4,1.6-1.7l12.7-3.3c1.9-0.6,4.6-1.5,8.1-2.6c1.2-0.5,2.1-0.7,2.6-0.8c1-0.3,1.7-0.1,1.9,0.7
			c0.1,0.5,0,0.8-0.2,1c-0.3,0.2-1.1,0.7-2.4,1.2c-1.7,0.7-2.7,1.5-3.3,2.4c-0.6,0.8-0.7,2-0.5,3.7s1.1,5.2,2.7,10.7l6.6,23.2
			c1,3.6,1.9,5.6,2.8,6.1c0.9,0.5,2,0.5,3.7,0c4.2-1.2,7.2-2.4,9-3.6c1.8-1.2,3.5-2.9,4.8-5.2s2.5-5.6,3.5-10.2
			c0.2-0.9,0.6-1.5,1-1.6c0.7-0.2,1.1,0.1,1.4,0.8C181.3,21.9,182,27.5,182.8,36.9z"/>
		<path class="st0" d="M230.3,34.4c-6.6,0-16.9,0.2-30.7,0.9c-4.8,0.2-8.8,0.6-11.8,1c-0.8,0.1-1.2,0.1-1.6,0.1
			c-1,0-1.6-0.3-1.6-1.1c0-0.3,0.1-0.7,0.3-0.8c0.2-0.1,0.9-0.3,1.9-0.6c1.6-0.3,2.8-0.9,3.7-1.6c0.8-0.8,1.4-1.9,1.7-3.4
			c0.3-1.5,0.3-5.2,0.1-11S191.9,5,191.4-3.1c-0.1-3.3-0.5-5.6-1-7.1s-1.2-2.5-2.1-3.2c-0.9-0.7-2.1-0.9-3.8-1
			c-1.1,0-1.7-0.5-1.8-1.2c0-0.8,0.6-1.2,1.9-1.2l13.2-0.2c2-0.1,4.8-0.3,8.4-0.7c1.4-0.1,2.3-0.2,2.7-0.2c1.1,0,1.7,0.3,1.7,1.1
			c0,0.5-0.1,0.7-0.5,0.9c-0.3,0.2-1.2,0.5-2.6,0.7c-1.8,0.3-2.9,0.8-3.7,1.5c-0.7,0.7-1.1,1.9-1.4,3.5c-0.2,1.7-0.1,5.3,0.1,11
			l1.1,24.1c0.2,3.7,0.7,5.9,1.2,6.5s1.9,1,3.6,0.9c4.3-0.2,7.5-0.7,9.6-1.5c2-0.8,4.1-2,5.9-3.9c1.8-1.8,3.7-5,5.7-9.1
			c0.5-0.9,0.9-1.4,1.4-1.4c0.7,0,1.1,0.3,1.1,1.1C232.4,19.3,231.8,24.9,230.3,34.4z"/>
		<path class="st0" d="M280.7,45.3c-1.1-0.3-5.6-1.9-13.5-4.7l-8.3-2.7l-4.8-1.7c-1.1-0.3-1.8-0.7-2.1-0.9c-0.2-0.2-0.3-0.6-0.1-1
			c0.2-0.7,0.9-0.9,2-0.6c2,0.7,3.7,0.8,4.8,0.5c1.2-0.3,2.3-1.5,3-3.3c0.9-1.8,2.4-5.5,4.4-11c2-5.5,3.8-10.7,5.4-15.4
			c2.1-6.6,3.3-10.8,3-12.6c-0.1-1.7-1.5-3-3.9-4.1c-0.9-0.3-1.2-0.9-1-1.6c0.2-0.7,0.8-0.9,1.6-0.6c0.5,0.1,2,0.8,4.7,2
			c2.9,1.2,5.1,2.1,6.3,2.5l14.3,4.4c4.7,1.6,9,3.9,12.8,7.2c3.8,3.3,6.3,7.4,7.5,12.4s1,10.1-0.7,15.3c-1.2,3.8-3.3,7.2-5.9,10
			c-2.6,2.8-5.7,5-9.3,6.3s-7,1.9-10,1.7C288.1,47.3,284.6,46.5,280.7,45.3z M279.2,41.7c5.3,1.7,10,1.2,14.3-1.5
			c4.3-2.7,7.5-7.4,9.8-14.3c2.3-7,2.5-13.2,0.7-18.8s-5.7-9.3-11.8-11.4c-2-0.7-3.4-1-3.8-0.9s-0.8,0.2-1,0.5
			C287-4.5,286-1.8,284,3.6l-4.6,12.6c-1.1,3.2-2.5,7-3.9,11.6c-1.1,3.5-1.8,6-1.9,7.3s0.2,2.7,1,3.7
			C275.3,40.1,276.8,41,279.2,41.7z"/>
		<path class="st0" d="M365.7,28.3c4.4,3,7.5,6.6,9.6,10.7s2.9,8.4,2.6,13.2c-0.3,4.7-1.9,9-4.6,12.9c-4.3,6.1-10.2,9.8-18,11.4
			c-7.8,1.5-15.1-0.1-21.7-4.7c-6.1-4.3-9.9-9.8-11.5-16.7c-1.6-6.9-0.1-13.6,4.5-20.3c4.4-6.2,10.4-10,17.9-11.4
			C352,22,359.1,23.7,365.7,28.3z M361.6,58.2c4.6-6.5,6.9-12.3,7-17.1c0.1-4.8-1.6-8.4-5-10.9c-3.4-2.4-7.3-2.7-11.9-0.9
			c-4.5,1.8-9.1,5.9-13.6,12.4c-4.4,6.3-6.8,11.9-7,16.8c-0.3,5,1.4,8.7,5,11.1c3.2,2.3,7,2.6,11.6,1.1
			C352,69.4,356.7,65.2,361.6,58.2z"/>
		<path class="st0" d="M374.2,108.7l-1.7-2.4l11.8-21.2c4.7-8.4,8.1-14.8,10.1-18.9c2-4.2,3.2-7,3.3-8.3c0.1-1.4-0.1-2.7-0.6-3.9
			c-0.3-0.8-0.2-1.4,0.2-1.7c0.3-0.2,0.7-0.3,0.9-0.1c0.3,0.1,0.8,0.8,1.6,1.8l5.7,8.1c0.7,1,1.7,2.3,3,3.8c1.9,2.3,3.3,4.1,4.3,5.3
			c0.6,0.8,0.6,1.4-0.1,1.8c-0.6,0.5-1.2,0.2-1.9-0.7c-0.8-0.9-1.7-1.5-2.8-1.7c-1.1-0.3-2-0.1-2.9,0.5c-0.7,0.5-1.4,1.4-2,2.5
			c-0.7,1.1-3.3,5.5-7.5,13.3l-7.8,14.1l23.5-6.9c0.6-1.1,1.7-3,3.4-5.7c1.6-2.7,2.5-4.5,2.5-5.4c0-0.9-0.3-2-1.1-3.5
			c-0.5-0.8-0.3-1.4,0.1-1.7c0.3-0.2,0.7-0.3,1-0.1c0.3,0.2,1,1.1,2.3,2.7l5.5,7.8l4.7,6.1c1.6,2.1,2.5,3.4,2.6,3.7s0,0.7-0.5,1
			c-0.6,0.5-1.1,0.2-1.7-0.6c-1-1.4-2.1-2.1-3.3-2.3c-1.1-0.1-2.3,0.1-3.2,0.8c-2.6,1.9-8.6,10.9-17.8,27c3.9-1,9.3-2.6,16.1-4.6
			c6.9-2,10.7-3.3,11.8-3.7c1.1-0.5,1.9-0.9,2.7-1.5c1.2-0.9,1.8-1.9,1.8-3s-0.2-2.1-0.8-2.8c-0.7-1.1-0.8-1.8-0.3-2.3
			c0.6-0.5,1.2-0.1,1.9,0.8l3.8,5.5c1.6,2.1,2.9,3.8,4.3,5.3c0.7,0.8,1.2,1.4,1.4,1.7c0.6,0.8,0.7,1.5,0,1.9
			c-0.6,0.3-1.1,0.2-1.9-0.7c-0.7-0.8-1.6-1.4-2.5-1.7s-2.4-0.5-4.4-0.3c-2,0.1-6,1-11.8,2.6l-18.2,5.3l-18.6,5.4l-1.7-2.3
			c0.7-1.2,3.9-6.4,9.9-15.7c3-4.8,6.2-9.9,9.5-15.4l-18.2,5.4L374.2,108.7z"/>
		<path class="st0" d="M458.9,149.7c-10,16.3-18,29.7-23.9,40.3c1.7-0.5,2.8-0.8,3.4-1l15-4.5c3.5-1.1,6-2,7.4-2.9
			c1.5-0.9,2.4-2.1,2.8-3.7c0.5-1.6,0.6-3.3,0.1-5.1c-0.2-1,0.1-1.6,0.8-1.8c0.8-0.2,1.2,0.1,1.5,0.9c0.1,0.5,0.3,1.1,0.5,1.9
			c0.2,1.5,0.8,3.6,1.7,6.4c1,3.5,1.9,6.1,2.7,7.9c0.3,0.8,0.6,1.4,0.7,1.9c0.3,1,0.1,1.6-0.7,1.8c-0.7,0.2-1.4-0.3-1.8-1.6
			c-0.7-1.6-1.8-2.8-3.4-3.8c-1.6-1-4.2-1-7.7,0.1l-21.4,6.8l-16.2,4.6c-1.4,0.5-2.3,0.2-2.5-0.7c-0.1-0.2-0.1-0.6,0-0.9
			s1.2-2.6,3.6-6.8c2.4-4.2,6.1-10.5,11.3-18.9c5.1-8.4,8.8-14.3,11.1-17.8c-0.7,0.1-7.1,2-19,5.7c-3.7,1.1-6.5,2.1-8.6,3.2
			c-2,1-3.3,2.4-3.7,4.4c-0.5,1.9-0.5,3.6,0,5c0.2,0.9,0.1,1.4-0.6,1.6c-0.8,0.2-1.2-0.1-1.6-1c-0.2-0.6-0.3-1.4-0.6-2.3
			c-0.2-1.6-0.8-3.5-1.5-5.9c-1.1-3.7-2.1-6.4-2.8-8.1c-0.5-1-0.8-1.8-0.9-2.3c-0.3-1,0-1.6,0.8-1.9c0.6-0.2,1.2,0.5,1.8,2
			c1.1,2.8,2.6,4.3,4.6,4.5c1.9,0.2,4.4-0.2,7.4-1.1c13.1-3.9,20.9-6.5,23.9-7.5c2.8-1,5.2-2.7,7.1-5.2c1.9-2.5,2.6-4.8,2.4-7.3
			c-0.1-1,0.1-1.7,0.7-1.8c0.8-0.2,1.5,0.1,1.7,1.1c0.1,0.2,0.1,0.7,0.2,1.1c0.1,0.6,0.5,1.7,0.9,3.2
			C457.2,143.7,458.1,146.8,458.9,149.7z"/>
	</g>
</g>
</svg>
